<svg width="40" height="50" xmlns="http://www.w3.org/2000/svg">
 <!-- Created with Method Draw - http://github.com/duopixel/Method-Draw/ -->

 <g>
  <title>background</title>
  <rect fill="none" id="canvas_background" height="52" width="42" y="-1" x="-1"/>
  <g display="none" overflow="visible" y="0" x="0" height="100%" width="100%" id="canvasGrid">
   <rect fill="url(#gridpattern)" stroke-width="0" y="0" x="0" height="100%" width="100%"/>
  </g>
 </g>
 <g>
  <title>Layer 1</title>
  <path stroke-opacity="0" stroke="#ffffff" id="svg_7" d="m17.88906,49.96198c-6.99418,-0.53165 -10.77059,-5.50145 -3.78198,-7.32196c7.28546,-1.79505 11.61842,4.59527 3.66041,5.21988c-4.35757,0.78063 5.65761,2.0879 7.52426,0.77527c5.83263,-1.34998 4.93163,-4.86359 3.52833,-7.33812c-0.487,-1.89573 -1.09603,-3.92528 -6.09795,-2.84788c-12.06754,0.46428 -21.62141,-5.38989 -20.66178,-10.86645c0.3258,-5.16561 9.17427,-8.70363 15.72634,-12.29077c-2.15106,-4.69288 -2.80055,-10.11445 3.43517,-14.20394c5.74382,-3.32431 8.65925,2.7589 9.63084,4.8231c2.15816,4.82505 -2.14502,9.89541 -9.30544,13.29667c0.68371,1.61335 1.35643,3.22778 2.05319,4.83985c7.56675,-0.69859 14.78957,2.35886 15.20228,5.94008c1.16918,3.2339 -3.16847,6.28791 -9.09326,7.67775c-0.09742,2.77699 3.11145,5.65756 1.95846,8.5252c-1.10728,2.96489 -8.06077,4.41878 -13.77887,3.77132l0,0zm7.89943,-12.65197c2.14378,-1.92431 -1.74474,-5.32278 -1.95823,-7.79287c0.08397,-4.30731 -9.47065,0.83437 -6.62931,2.94959c0.84226,1.25163 8.15291,3.54691 1.4375,2.13132c-7.01107,-2.00655 -6.68995,-7.16929 -0.28384,-9.34916c5.37449,-0.56927 2.09196,-3.99879 1.07927,-5.12526c-6.60102,2.87671 -14.083,6.49906 -12.94458,11.15503c0.85753,4.36402 10.80633,7.01138 19.2992,6.03135l0,0zm4.44145,-0.83299c6.29582,-1.93271 6.0892,-7.00495 -0.79888,-8.57812c-7.34962,-1.85706 -2.3156,3.00812 -2.18093,4.85999c1.01998,0.70892 0.4422,4.83969 2.97981,3.71814zm-7.75925,-23.25009c3.87272,-2.24027 8.29966,-5.47452 5.57987,-8.43645c-5.85706,-1.8488 -9.11187,3.14968 -9.25592,5.33841c-0.05329,1.41922 -0.49066,6.31102 3.67605,3.09805l0,0l0,0z" fill="#007fff"/>
 </g>
</svg>