<svg width="100" height="140" xmlns="http://www.w3.org/2000/svg">
 <!-- Created with Method Draw - http://github.com/duopixel/Method-Draw/ -->
 <defs>
  <filter id="svg_1_blur">
   <feGaussianBlur stdDeviation="0" in="SourceGraphic"/>
  </filter>
 </defs>
 <g>
  <title>background</title>
  <rect fill="none" id="canvas_background" height="142" width="102" y="-1" x="-1"/>
  <g display="none" overflow="visible" y="0" x="0" height="100%" width="100%" id="canvasGrid">
   <rect fill="url(#gridpattern)" stroke-width="0" y="1" x="1" height="130" width="130"/>
  </g>
 </g>
 <g>
  <title>Layer 1</title>
  <path filter="url(#svg_1_blur)" id="svg_1" d="m43.413949,134.36427c-17.012858,-1.350396 -26.198734,-13.973672 -9.199404,-18.597788c17.721388,-4.559438 28.261026,11.671992 8.903689,13.258502c-10.599503,1.982806 13.761752,5.303269 18.302258,1.969198c14.18748,-3.428952 11.995865,-12.353519 8.58243,-18.638825c-1.184598,-4.815165 -2.666011,-9.97022 -14.832842,-7.233607c-29.35348,1.179275 -52.592622,-13.690328 -50.258368,-27.600789c0.792489,-13.120657 22.315777,-22.107212 38.253243,-31.218557c-5.232308,-11.91992 -6.812156,-25.690694 8.355807,-36.077994c13.971458,-8.443733 21.063035,7.00761 23.426367,12.250664c5.249566,12.255629 -5.217627,25.134346 -22.634851,33.773527c1.663082,4.097907 3.299415,8.198554 4.994256,12.293222c18.40561,-1.774419 35.974612,5.9915 36.978506,15.087809c2.843959,8.214106 -7.707082,15.971292 -22.118736,19.50148c-0.236976,7.053553 7.568396,14.370197 4.763818,21.654008c-2.693383,7.53081 -19.607278,11.223706 -33.516165,9.57915l-0.000009,0zm19.214836,-32.13599c5.214606,-4.887744 -4.243956,-13.519851 -4.763272,-19.793876c0.204244,-10.940559 -23.036716,2.119295 -16.125357,7.491946c2.048739,3.179128 19.831408,9.009151 3.496618,5.413544c-17.053955,-5.096629 -16.272843,-18.209995 -0.690427,-23.74685c13.073092,-1.445951 5.088543,-10.156922 2.625248,-13.018164c-16.056539,7.306834 -34.255933,16.507601 -31.48681,28.333769c2.085883,11.084613 26.285672,17.808901 46.944,15.319636l0,-0.000004zm10.803525,-2.115783c15.314143,-4.90907 14.811555,-17.792574 -1.943228,-21.788431c-17.877443,-4.71693 -5.632534,7.640633 -5.304967,12.34436c2.481022,1.800646 1.075622,12.292805 7.248195,9.444071zm-18.873843,-59.05523c9.420137,-5.690277 20.18837,-13.905282 13.572657,-21.428583c-14.246902,-4.69594 -22.164015,8.000191 -22.514396,13.55955c-0.129613,3.604813 -1.193509,16.029986 8.941747,7.869034l0,0l-0.000009,0z" stroke-width="0" fill="#1890ff"/>
 </g>
</svg>